Coordinates
version=1
nRows=19
nColumns=36
inDegrees=yes

Units are S.I. units (second, meters, Newtons, ...)
If the header above contains a line with 'inDegrees', this indicates whether rotational values are in degrees (yes) or radians (no).

endheader
time	pelvis_tilt	pelvis_list	pelvis_rotation	pelvis_tx	pelvis_ty	pelvis_tz	hip_flexion_r	hip_adduction_r	hip_rotation_r	knee_angle_r	knee_angle_r_beta	ankle_angle_r	subtalar_angle_r	mtp_angle_r	hip_flexion_l	hip_adduction_l	hip_rotation_l	knee_angle_l	knee_angle_l_beta	ankle_angle_l	subtalar_angle_l	mtp_angle_l	lumbar_extension	lumbar_bending	lumbar_rotation	arm_flex_r	arm_add_r	arm_rot_r	elbow_flex_r	pro_sup_r	arm_flex_l	arm_add_l	arm_rot_l	elbow_flex_l	pro_sup_l
      4.38333330	     -9.04063181	      5.51305780	     -4.92382232	      0.93051573	      0.82684073	     -0.02811250	     32.66529107	     -6.47935250	      1.89593636	     59.16132863	      1.03255997	     34.86409304	    -10.75276702	     -7.49999987	     33.32126006	      0.41884662	      1.97462490	     57.01834387	      0.99515783	     30.83682274	     -6.50239049	     -7.49999987	    -14.70082637	     -0.96007972	     -3.21014593	     13.35679644	     -9.01787795	     29.74203238	     21.75924546	     71.80937558	     21.34117485	    -10.00845373	     38.78879050	     23.04251641	     63.46870851
      4.40000000	     -9.22634267	      5.68864377	     -5.28620701	      0.93452010	      0.84974536	     -0.02477426	     30.24645305	     -6.28479698	      2.10991647	     53.62584376	      0.93594754	     31.27918989	    -11.75374796	     -7.49999987	     30.27015523	      0.52550615	      1.85578223	     50.80091790	      0.88664328	     27.89152119	     -6.74228089	     -7.49999987	    -13.88872798	     -1.24507200	     -3.18502718	     13.19772950	     -8.48775677	     30.11154544	     20.88720995	     72.33493653	     20.97803996	     -9.36489481	     39.24231603	     22.56538422	     64.33026884
      4.41666670	     -8.91025863	      5.55074853	     -5.41191282	      0.93780939	      0.86308645	     -0.02248302	     27.19966895	     -5.91441653	      2.01148817	     48.28189930	      0.84267811	     27.97857810	    -12.85103848	     -7.49999987	     26.86605910	      0.24556520	      1.64595123	     45.04058107	      0.78610644	     25.04198175	     -6.72872406	     -7.49999987	    -13.38697705	     -1.22669605	     -3.31697581	     12.96840482	     -8.10676837	     31.27430788	     20.01348384	     73.64579804	     20.73140255	     -8.86267153	     40.55069441	     21.90351735	     67.68475251
      4.43333330	     -8.78333924	      5.42269618	     -5.78846004	      0.93539197	      0.87883889	     -0.02125073	     24.76306357	     -5.47776964	      2.06955089	     43.19611349	      0.75391440	     24.41153323	    -14.09532503	     -7.49999987	     23.85172978	     -0.02695897	      1.45612670	     39.49010445	      0.68923234	     21.92022113	     -6.79651168	     -7.49999987	    -12.76944846	     -1.19115308	     -3.23831669	     12.64429869	     -7.69521045	     30.95141506	     19.58858252	     73.88937189	     20.19258903	     -8.33024757	     40.39310337	     21.99659852	     68.26905387
      4.45000000	     -8.30785965	      5.06630386	     -6.05313699	      0.93778313	      0.89172746	     -0.02169959	     21.61807167	     -5.00560805	      1.85381459	     37.80573815	      0.65983461	     20.92273003	    -15.05161880	     -7.49999987	     20.56669243	     -0.43840275	      1.27912148	     34.22029896	      0.59725689	     18.94290639	     -6.49651359	     -7.49999987	    -12.36306324	     -0.81842293	     -3.25589195	     12.24383845	     -7.41540177	     30.58418579	     19.24206412	     74.18373927	     19.53991579	     -7.83746054	     40.20050256	     22.32796371	     68.99860899
      4.46666670	     -7.93245555	      4.63792444	     -6.44482061	      0.93724827	      0.90258959	     -0.02132070	     18.70094756	     -4.46296732	      1.71722204	     32.39035368	      0.56531832	     17.89166526	    -15.66113100	     -7.49999987	     17.63228251	     -0.91994322	      1.11649466	     29.45857933	      0.51414920	     16.55173739	     -5.97346225	     -7.49999987	    -11.98342251	     -0.35726130	     -3.24390209	     11.73271422	     -7.13146364	     27.71266794	     19.42462444	     79.33376468	     18.36916645	     -7.32804624	     34.97556033	     23.91829577	     80.01615087
      4.48333330	     -7.70473014	      4.45317973	     -6.96512042	      0.93383569	      0.91202212	     -0.02454510	     16.23733601	     -4.28548658	      1.67616746	     27.30652043	      0.47658869	     15.21885279	    -15.66927813	     -7.49999987	     15.24579735	     -0.95409431	      0.99979404	     24.97381245	      0.43587525	     13.94204047	     -6.14959343	     -7.49999987	    -11.40841780	     -0.07644981	     -2.98367959	     11.47013572	     -7.14606115	     27.37018312	     19.41029832	     79.28233497	     17.86325496	     -6.91585246	     34.68808431	     24.99955871	     80.15027594
      4.50000000	     -7.47024460	      4.25818081	     -7.31505197	      0.93379417	      0.91917390	     -0.02641676	     13.78888516	     -4.19547542	      1.43028411	     22.41758478	      0.39126066	     12.84263301	    -15.44222926	     -7.49999987	     13.00339860	     -0.92921827	      0.96063425	     20.80760463	      0.36316121	     11.68287525	     -6.31409631	     -7.49999987	    -11.00950355	      0.23375295	     -2.77648335	     11.01889685	     -7.20168469	     26.27262838	     19.82354908	     77.54742547	     17.27254392	     -6.54287354	     33.32249690	     27.06286243	     78.90370312
      4.51666670	     -7.11945001	      4.00190462	     -7.55642358	      0.93549847	      0.92804904	     -0.02482648	     11.13507182	     -4.01063226	      1.16399409	     17.66169085	      0.30825466	     10.48384531	    -14.97986261	     -7.49999987	     10.64986492	     -0.98445095	      1.04328962	     16.78734188	      0.29299439	      9.44227641	     -6.42008752	     -7.49999987	    -10.66944653	      0.52301875	     -2.43598152	     10.51475340	     -7.34910938	     25.47699942	     20.00165641	     77.71602140	     16.99609165	     -6.23378582	     32.53392221	     29.26823739	     79.70508927
      4.53333330	     -6.74225144	      3.80910729	     -7.68688427	      0.93655369	      0.93321315	     -0.02368915	      8.52756241	     -3.79655601	      0.86551885	     13.38302092	      0.23357778	      8.71824905	    -14.05512763	     -7.49999987	      8.39808291	     -1.03409848	      1.17977712	     13.06184337	      0.22797217	      7.43734357	     -6.32884341	     -7.49999987	    -10.37209752	      0.66572356	     -2.43797046	      9.81625502	     -7.12660456	     21.00529890	     20.68013819	     82.28398819	     15.76090890	     -5.95892815	     26.49133283	     33.51120102	     91.57053849
      4.55000000	     -6.25200178	      3.60030488	     -7.66913043	      0.93980913	      0.92987361	     -0.02537189	      6.07946794	     -3.61760411	      0.65351539	      9.87456939	      0.17234375	      7.45522771	    -13.41145412	     -7.49999987	      6.25833421	     -1.08096588	      1.36829949	     10.05656354	      0.17552015	      6.10650660	     -6.24310194	     -7.49999987	    -10.02066547	      0.75544801	     -1.90757488	      9.09640026	     -7.37223642	     20.01262551	     20.88714064	     82.06604928	     15.39768496	     -5.97766531	     26.39497768	     37.34730269	     91.76937168
      4.56666670	     -6.00547019	      3.42703264	     -7.42988791	      0.93857682	      0.92855638	     -0.02478125	      4.19692641	     -3.37524144	      0.57635241	      7.03417836	      0.12276957	      6.66705518	    -13.02282773	     -7.49999987	      4.63695760	     -1.13581003	      1.62322947	      7.41877584	      0.12948206	      5.24301027	     -6.10675680	     -7.49999987	     -9.61846299	      0.82580067	     -1.82535846	      8.17986540	     -7.22229439	     15.81048841	     21.76736042	     81.64819156	     14.34608371	     -6.30095409	     24.09875731	     43.53596463	     93.55908921
      4.58333330	     -5.89926538	      3.24811414	     -7.24730056	      0.93496932	      0.92471088	     -0.02850847	      2.98881334	     -3.20027772	      0.69093975	      4.96569791	      0.08666778	      6.09081027	    -13.14109527	     -7.49999987	      3.48809525	     -1.17883277	      1.97134668	      5.33934402	      0.09318913	      4.77850210	     -5.99368030	     -7.49999987	     -9.21636404	      0.91624477	     -1.00474015	      7.49607929	     -7.80264439	     14.65036406	     22.35027058	     81.53748799	     14.18421198	     -6.96330824	     24.69741768	     50.59682754	     94.03425175
      4.60000000	     -5.52519103	      3.06075770	     -7.20630809	      0.93433160	      0.92373556	     -0.03094996	      1.72423273	     -3.10269847	      0.64637690	      3.35032888	      0.05847427	      5.92917353	    -13.32724529	     -7.49999987	      2.15992027	     -1.17650819	      2.31836238	      3.48606445	      0.06084330	      4.62652815	     -5.82456611	     -7.49999987	     -9.21486394	      1.02327943	     -0.60883428	      6.89571340	     -8.10845527	     12.41402732	     23.11439470	     79.32268103	     13.40548614	     -7.79136024	     23.97470885	     58.97949527	     92.64786153
      4.61666670	     -5.38640937	      2.99292447	     -7.03481878	      0.93472924	      0.92964498	     -0.02975501	      0.85608602	     -3.05279005	      0.48373370	      2.05684311	      0.03589868	      5.59836822	    -13.15252273	     -7.49999987	      1.34069251	     -1.15106334	      2.60890845	      2.06551886	      0.03605010	      4.36009078	     -5.49535720	     -7.49999987	     -9.16715416	      1.05499296	     -0.86615006	      6.41675890	     -7.96394458	      7.71108558	     23.97894675	     83.76149918	     11.32046315	     -8.67533812	     21.03038092	     69.51542452	     98.89299050
      4.63333330	     -5.08530963	      2.86031041	     -6.97675338	      0.93687837	      0.92869596	     -0.03047411	     -0.02305864	     -2.98955392	      0.34871896	      1.22561414	      0.02139100	      5.42948172	    -12.98937061	     -7.49999987	      0.46979806	     -1.21272481	      2.60713001	      1.12228587	      0.01958758	      4.30489678	     -4.94432577	     -7.49999987	     -9.17708034	      1.08823179	     -0.61346563	      5.82463577	     -8.18308615	      5.62395560	     24.47444986	     85.04277914	      9.43663127	     -9.47823815	     19.83550845	     79.42497599	     99.71369363
      4.65000000	     -4.79068741	      2.73082004	     -6.94460135	      0.93332342	      0.93157313	     -0.03168804	     -0.60261191	     -2.91041303	      0.18893328	      0.79112641	      0.01380776	      5.22626591	    -12.86268807	     -7.49999987	     -0.04667584	     -1.26479781	      2.44282456	      0.67981914	      0.01186508	      4.28383952	     -4.38145668	     -7.49999987	     -9.31267933	      1.09100161	     -0.13587300	      5.29949235	     -8.47972330	      3.99073606	     24.83178425	     85.05458815	      7.51961143	     -9.59452041	     18.97673832	     88.38485662	     99.49834474
      4.66666670	     -4.45767012	      2.56720146	     -6.83771500	      0.93248390	      0.93007255	     -0.02994947	     -1.14084560	     -2.74257161	      0.13591086	      0.54267030	      0.00947138	      5.33993816	    -12.56305366	     -7.49999987	     -0.47438996	     -1.42176598	      2.32314704	      0.50135308	      0.00875026	      4.66641897	     -3.75621571	     -7.49999987	     -9.42653632	      1.06893524	      0.00263291	      5.00902302	     -8.57542592	      2.58023383	     24.48183103	     85.32975745	      6.45087731	     -9.56572779	     18.05579890	     95.86628121	    100.51358006
      4.68333330	     -4.25075650	      2.41996719	     -6.82960419	      0.93286877	      0.92812231	     -0.03357868	     -1.45725911	     -2.66687947	      0.07548315	      0.46159290	      0.00805632	      5.19752609	    -12.57929811	     -7.49999987	     -0.74467864	     -1.52859764	      2.27660316	      0.43431283	      0.00758019	      4.80707160	     -3.45257954	     -7.49999987	     -9.29268299	      1.14918275	      0.38564969	      4.58523768	     -8.88165627	      1.78745850	     24.03665237	     85.44849663	      7.08760764	     -9.39654677	     18.50316457	    101.85533943	    100.26797242
